# xmcd
#
# Track frame offsets:
#	150
#	14430
#	27283
#	43104
#	61732
#	76058
#	98573
#	117061
#	130877
#	147586
#	163427
#	176575
#	190860
#	207899
#	221279
#	232297
#	246898
#	262336
#
# Disc length: 3737 seconds
#
# Revision: 0
# Processed by: cddbd v1.5.2PL0 Copyright (c) Steve Scherf et al.
# Submitted via: EasyCDDAExtractor 16.0.6.1
#
DISCID=050e9712
DTITLE=Συλλογικός δίσκος - Η ρεμπέτικη κομπανία-Δ. Κοντογιάννης 1
DYEAR=2009
DGENRE=Ρεμπέτικη
TTITLE0=Δημητριανάκης Μανώλης - Τα μπλε παράθυρα [Μάρκος Βαμβακάρης]
TTITLE1=Κοντογιάννης Δημήτρης-Δημητριανάκης Μανώλης - Το οργανάκι [Γιώργος Μητ
TTITLE1=σάκης]
TTITLE2=Κοντογιάννης Δημήτρης-Δημητριανάκης Μανώλης - Να γιατί περνώ [Βασίλης 
TTITLE2=Τσιτσάνης]
TTITLE3=Κοντογιάννης Δημήτρης - Αν πάθεις και καμμιά ζημιά [Βασίλης Τσιτσάνης]
TTITLE4=Δημητριανάκης Μανώλης - Πάλι τραγούδι θα σού πω [Σ. Περιστέρης-Μ. Μάτσ
TTITLE4=ας]
TTITLE5=Άνευ ερμηνευτού - Μυστήριο ζεϊμπέκικο [οργανικό, Τζακ Γρηγορίου]
TTITLE6=Κοντογιάννης Δημήτρης - Ο Μητσάκης [Γιώργος Μητσάκης]
TTITLE7=Δημητριανάκης Μανώλης-Κοντογιάννης Δημήτρης - Χριστίνα [Μάρκος Βαμβακά
TTITLE7=ρης]
TTITLE8=Δημητριανάκης Μανώλης - Ο Αραμπατζής [Μάρκος Βαμβακάρης]
TTITLE9=Κοντογιάννης Δημήτρης - Ηλιοβασίλεμα σωστό [Γ. Λαύκας-Κ. Μάνεσης]
TTITLE10=Δημητριανάκης Μανώλης - Ο θερμαστής [Γιώργος Μπάτης]
TTITLE11=Κοντογιάννης Δημήτρης - Και συ δεν έχεις μπέσα [Γιώργος Μητσάκης]
TTITLE12=Κοντογιάννης Δημήτρης - Πώς θα περάσει η βραδιά [Γ. Παπαϊωάννου-στ. ι
TTITLE12=δίου κ Αλ. Αγγελόπουλος]
TTITLE13=Εμμανουήλ Χαρά-Σιδέρης Γιώργος - Θα σού φύγω με καιρό [Γ. Μητσάκης-Γ.
TTITLE13=Γιαννακόπουλος]
TTITLE14=Δημητριανάκης Μανώλης - Στου Βάβουλα τη γούβα [Σ. Κηρομύτης-Σ. Παγιου
TTITLE14=μτζής]
TTITLE15=Κοντογιάννης Δημήτρης - Ο ψαράς [Γιώργος Μητσάκης]
TTITLE16=Κοντογιάννης Δημήτρης-Δημητριανάκης Μανώλης - Φάνταζες σαν πριγκηπέσα
TTITLE16=[Βασίλης Τσιτσάνης]
TTITLE17=Κοντογιάννης Δημήτρης - Καλλιθιώτισσα [Κ. Καρίπης-Σ. Παγιουμτζής]
EXTD=
EXTT0=
EXTT1=
EXTT2=
EXTT3=
EXTT4=
EXTT5=
EXTT6=
EXTT7=
EXTT8=
EXTT9=
EXTT10=
EXTT11=
EXTT12=
EXTT13=
EXTT14=
EXTT15=
EXTT16=
EXTT17=
PLAYORDER=
